<svg width="215" height="32" viewBox="0 0 215 32" fill="none" xmlns="http://www.w3.org/2000/svg">
<path d="M19.915 15.8C21.745 16.19 23.215 17.105 24.325 18.545C25.435 19.955 25.99 21.575 25.99 23.405C25.99 26.045 25.06 28.145 23.2 29.705C21.37 31.235 18.805 32 15.505 32H0.79V0.409999H15.01C18.22 0.409999 20.725 1.145 22.525 2.615C24.355 4.085 25.27 6.08 25.27 8.6C25.27 10.46 24.775 12.005 23.785 13.235C22.825 14.465 21.535 15.32 19.915 15.8ZM8.485 13.19H13.525C14.785 13.19 15.745 12.92 16.405 12.38C17.095 11.81 17.44 10.985 17.44 9.905C17.44 8.825 17.095 8 16.405 7.43C15.745 6.86 14.785 6.575 13.525 6.575H8.485V13.19ZM14.155 25.79C15.445 25.79 16.435 25.505 17.125 24.935C17.845 24.335 18.205 23.48 18.205 22.37C18.205 21.26 17.83 20.39 17.08 19.76C16.36 19.13 15.355 18.815 14.065 18.815H8.485V25.79H14.155ZM56.0992 32L49.5292 20.075H47.6842V32H39.9892V0.409999H52.9042C55.3942 0.409999 57.5092 0.844999 59.2492 1.715C61.0192 2.585 62.3392 3.785 63.2092 5.315C64.0792 6.815 64.5142 8.495 64.5142 10.355C64.5142 12.455 63.9142 14.33 62.7142 15.98C61.5442 17.63 59.8042 18.8 57.4942 19.49L64.7842 32H56.0992ZM47.6842 14.63H52.4542C53.8642 14.63 54.9142 14.285 55.6042 13.595C56.3242 12.905 56.6842 11.93 56.6842 10.67C56.6842 9.47 56.3242 8.525 55.6042 7.835C54.9142 7.145 53.8642 6.8 52.4542 6.8H47.6842V14.63ZM98.5458 26.42H86.7558L84.8658 32H76.8108L88.2408 0.409999H97.1508L108.581 32H100.436L98.5458 26.42ZM96.5658 20.48L92.6508 8.915L88.7808 20.48H96.5658ZM129.291 0.409999V32H121.596V0.409999H129.291ZM172.663 32H164.968L152.098 12.515V32H144.403V0.409999H152.098L164.968 19.985V0.409999H172.663V32ZM214.867 0.409999L203.932 21.56V32H196.237V21.56L185.302 0.409999H194.032L200.152 13.64L206.227 0.409999H214.867Z" fill="#013762"/>
</svg>
