<svg width="53" height="53" viewBox="0 0 53 53" fill="none" xmlns="http://www.w3.org/2000/svg">
<path d="M15.9 42.4C12.985 42.4 10.6 44.785 10.6 47.7C10.6 50.615 12.985 53 15.9 53C18.815 53 21.2 50.615 21.2 47.7C21.2 44.785 18.815 42.4 15.9 42.4ZM0 0V5.3H5.3L14.84 25.44L11.13 31.8C10.865 32.595 10.6 33.655 10.6 34.45C10.6 37.365 12.985 39.75 15.9 39.75H47.7V34.45H16.96C16.695 34.45 16.43 34.185 16.43 33.92V33.6549L18.815 29.1499H38.425C40.545 29.1499 42.135 28.0899 42.93 26.4999L52.47 9.275C53 8.745 53 8.48 53 7.95C53 6.36 51.94 5.3 50.35 5.3H11.13L8.745 0H0ZM42.4 42.4C39.485 42.4 37.1 44.785 37.1 47.7C37.1 50.615 39.485 53 42.4 53C45.315 53 47.7 50.615 47.7 47.7C47.7 44.785 45.315 42.4 42.4 42.4Z" fill="#013762"/>
</svg>
