<svg width="512" height="512" viewBox="0 0 512 512" fill="none" xmlns="http://www.w3.org/2000/svg">
<path d="M117.333 179.333H416C418.829 179.333 421.542 177.753 423.542 174.94C425.543 172.127 426.667 168.311 426.667 164.333C426.667 160.355 425.543 156.54 423.542 153.727C421.542 150.914 418.829 149.333 416 149.333H117.333C114.504 149.333 111.791 150.914 109.791 153.727C107.79 156.54 106.667 160.355 106.667 164.333C106.667 168.311 107.79 172.127 109.791 174.94C111.791 177.753 114.504 179.333 117.333 179.333Z" fill="#013762"/>
<path d="M416 256H117.333C114.504 256 111.791 257.58 109.791 260.393C107.79 263.206 106.667 267.022 106.667 271C106.667 274.978 107.79 278.794 109.791 281.607C111.791 284.42 114.504 286 117.333 286H416C418.829 286 421.542 284.42 423.542 281.607C425.543 278.794 426.667 274.978 426.667 271C426.667 267.022 425.543 263.206 423.542 260.393C421.542 257.58 418.829 256 416 256Z" fill="#013762"/>
<path d="M416 362.667H117.333C114.504 362.667 111.791 364.247 109.791 367.06C107.79 369.873 106.667 373.688 106.667 377.667C106.667 381.645 107.79 385.46 109.791 388.273C111.791 391.086 114.504 392.667 117.333 392.667H416C418.829 392.667 421.542 391.086 423.542 388.273C425.543 385.46 426.667 381.645 426.667 377.667C426.667 373.688 425.543 369.873 423.542 367.06C421.542 364.247 418.829 362.667 416 362.667Z" fill="#013762"/>
</svg>
