<svg width="157" height="157" viewBox="0 0 157 157" fill="none" xmlns="http://www.w3.org/2000/svg">
<circle cx="78.5" cy="78.5" r="78.5" fill="#CEE250"/>
<g clip-path="url(#clip0_66_73)">
<path d="M60.916 104.876C56.0804 104.876 52.124 108.832 52.124 113.668C52.124 118.504 56.0804 122.46 60.916 122.46C65.7516 122.46 69.708 118.504 69.708 113.668C69.708 108.832 65.7516 104.876 60.916 104.876ZM34.54 34.54V43.332H43.332L59.1576 76.7416L53.0032 87.292C52.5636 88.6108 52.124 90.3692 52.124 91.688C52.124 96.5236 56.0804 100.48 60.916 100.48H113.668V91.688H62.6744C62.2348 91.688 61.7952 91.2484 61.7952 90.8088V90.3691L65.7516 82.8959H98.282C101.799 82.8959 104.436 81.1375 105.755 78.4999L121.581 49.926C122.46 49.0468 122.46 48.6072 122.46 47.728C122.46 45.0904 120.702 43.332 118.064 43.332H53.0032L49.0468 34.54H34.54ZM104.876 104.876C100.04 104.876 96.084 108.832 96.084 113.668C96.084 118.504 100.04 122.46 104.876 122.46C109.712 122.46 113.668 118.504 113.668 113.668C113.668 108.832 109.712 104.876 104.876 104.876Z" fill="#013762"/>
</g>
<defs>
<clipPath id="clip0_66_73">
<rect width="87.92" height="87.92" fill="white" transform="translate(34.54 34.54)"/>
</clipPath>
</defs>
</svg>
